# AST/ASF file generated using VICON BodyLanguage
# -----------------------------------------------
:version 1.10
:name VICON
:units
  mass 1.0
  length 0.45
  angle deg
:documentation
   .ast/.asf automatically generated from VICON data using
   VICON BodyBuilder and BodyLanguage model FoxedUp or BRILLIANT.MOD
:root
   order TX TY TZ RX RY RZ
   axis XYZ
   position 0 0 0  
   orientation 0 0 0 
:bonedata
  begin
     id 1 
     name lhipjoint
     direction 0.635376 -0.686425 0.353719 
     length 2.47244 
     axis 0 0 0  XYZ
  end
  begin
     id 2 
     name lfemur
     direction 0.34202 -0.939693 0  
     length 7.25268  
     axis 0 0 20  XYZ
    dof rx ry rz
    limits (-160.0 20.0)
           (-70.0 70.0)
           (-60.0 70.0)
  end
  begin
     id 3 
     name ltibia
     direction 0.34202 -0.939693 0   
     length 7.6767   
     axis 0 0 20   XYZ
    dof rx
    limits (-10.0 170.0)
  end
  begin
     id 4 
     name lfoot
     direction 0.0803374 -0.220725 0.972022   
     length 2.22945   
     axis -90 7.62852e-016 20   XYZ
    dof rx rz
    limits (-45.0 90.0)
           (-70.0 20.0)
  end
  begin
     id 5 
     name ltoes
     direction 1.53579e-011 -4.21994e-011 1   
     length 1.11848   
     axis -90 7.62852e-016 20   XYZ
    dof rx
    limits (-90.0 20.0)
  end
  begin
     id 6 
     name rhipjoint
     direction -0.664428 -0.664335 0.342336   
     length 2.55466  
     axis 0 0 0  XYZ 
  end
  begin
     id 7 
     name rfemur
     direction -0.34202 -0.939693 0   
     length 6.83172   
     axis 0 0 -20   XYZ
    dof rx ry rz
    limits (-160.0 20.0)
           (-70.0 70.0)
           (-70.0 60.0)
  end
  begin
     id 8 
     name rtibia
     direction -0.34202 -0.939693 0   
     length 7.62692   
     axis 0 0 -20   XYZ
    dof rx
    limits (-10.0 170.0)
 end
 begin
     id 9 
     name rfoot
     direction -0.0949276 -0.260811 0.960711   
     length 2.19684  
     axis -90 -7.62852e-016 -20   XYZ
    dof rx rz
    limits (-45.0 90.0)
           (-20.0 70.0)
  end
  begin
     id 10 
     name rtoes
     direction -1.53543e-011 -4.2183e-011 1   
     length 1.09848   
     axis -90 -7.62852e-016 -20   XYZ
    dof rx
    limits (-90.0 20.0)
  end
  begin
     id 11 
     name lowerback
     direction 0.0118782 0.999815 -0.0151555   
     length 2.15772   
     axis 0 0 0   XYZ
    dof rx ry rz
    limits (-20.0 45.0)
           (-30.0 30.0)
           (-30.0 30.0)
  end
  begin
     id 12 
     name upperback
     direction 0.00130825 0.999065 0.0432113   
     length 2.14863   
     axis 0 0 0   XYZ
    dof rx ry rz
    limits (-20.0 45.0)
           (-30.0 30.0)
           (-30.0 30.0)
  end
  begin
     id 13 
     name thorax
     direction -0.00347005 0.998773 0.0494011   
     length 2.14936   
     axis 0 0 0   XYZ
    dof rx ry rz
    limits (-20.0 45.0)
           (-30.0 30.0)
           (-30.0 30.0)
  end
  begin
     id 14 
     name lowerneck
     direction -0.0262159 0.99424 0.103921   
     length 1.69373   
     axis 0 0 0   XYZ
    dof rx ry rz
    limits (-20.0 45.0)
           (-30.0 30.0)
           (-30.0 30.0)
  end
  begin
     id 15 
     name upperneck
     direction 0.0353511 0.977394 -0.20845   
     length 1.70857   
     axis 0 0 0   XYZ
    dof rx ry rz
    limits (-20.0 45.0)
           (-30.0 30.0)
           (-30.0 30.0)
  end
  begin
     id 16
     name head
     direction 0.0139214 0.996594 -0.0812836  
     length 1.72777  
     axis 0 0 0   XYZ
    dof rx ry rz
    limits (-20.0 45.0)
           (-30.0 30.0)
           (-30.0 30.0)
  end
  begin
     id 17 
     name lclavicle
     direction 0.841247 0.537205 -0.0609508  
     length 3.55371  
     axis 0 0 0   XYZ
    dof ry rz
    limits (-20.0 10.0)
           (0.0 20.0)
  end
  begin
     id 18 
     name lhumerus
     direction 1 -4.48964e-011 1.60116e-018   
     length 4.91377   
     axis -180 -30 -90   XYZ
    dof rx ry rz
    limits (-60.0 90.0)
           (-90.0 90.0)
           (-90.0 90.0)
  end
  begin
     id 19
     name lradius
     direction 1 -4.48989e-011 -8.93847e-027   
     length 3.00291   
     axis -180 -30 -90   XYZ
    dof rx
    limits (-10.0 170.0)
  end
  begin
     id 20
     name lwrist
     direction 1 -4.48932e-011 -7.31504e-027   
     length 1.50145   
     axis 5.74121e-015 90 90   XYZ
    dof ry
    limits (-180.0 0.0)
 end
  begin
     id 21 
     name lhand
     direction 1 -4.48971e-011 -1.46301e-026   
     length 0.450922   
     axis 9.33524e-015 90 90   XYZ
    dof rx rz
    limits (-90.0 90.0)
           (-45.0 45.0)
  end
  begin
     id 22 
     name lfingers
     direction 1 -4.49039e-011 -2.92602e-026   
     length 0.363545   
     axis 1.86705e-014 90 90   XYZ
    dof rx
    limits (0.0 90.0)
  end
  begin
     id 23
     name lthumb
     direction 0.707107 -6.34941e-011 0.707107   
     length 0.52198   
     axis -90 45 2.85299e-015   XYZ
    dof rx rz
    limits (-45.0 45.0)
           (-45.0 45.0)
  end
  begin
     id 24 
     name rclavicle
     direction -0.825079 0.56158 -0.0622297   
     length 3.39909  
     axis 0 0 0   XYZ 
    dof ry rz
    limits (-10.0 20.0)
           (-20.0 0.0)
  end
  begin
     id 25 
     name rhumerus
     direction -1 -4.48965e-011 1.61691e-027  
     length 4.86725   
     axis -180 30 90   XYZ
    dof rx ry rz
    limits (-90.0 60.0)
           (-90.0 90.0)
           (-90.0 90.0)
  end
  begin
     id 26 
     name rradius
     direction -1 -4.48964e-011 -2.25776e-027   
     length 3.17144   
     axis -180 30 90   XYZ
    dof rx
    limits (-10.0 170.0)
  end
  begin
     id 27 
     name rwrist
     direction -1 -4.48961e-011 -7.31504e-027   
     length 1.58572   
     axis 5.74121e-015 -90 -90   XYZ
    dof ry
    limits (-180.0 0.0)
  end
  begin
     id 28
     name rhand
     direction -1 -4.49013e-011 -1.46301e-026   
     length 0.419368   
     axis 9.33524e-015 -90 -90   XYZ
    dof rx rz
    limits (-90.0 90.0)
           (-45.0 45.0)
  end
  begin
     id 29
     name rfingers
     direction -1 -4.489e-011 -2.92602e-026   
     length 0.338105   
     axis 1.86705e-014 -90 -90   XYZ
    dof rx
    limits (0.0 90.0)
  end
  begin
     id 30
     name rthumb
     direction -0.707107 -6.35022e-011 0.707107   
     length 0.485453   
     axis -90 -45 -2.85299e-015   XYZ
    dof rx rz
    limits (-45.0 45.0)
           (-45.0 45.0)
  end
:hierarchy
  begin
    root lhipjoint rhipjoint lowerback
    lhipjoint lfemur
    lfemur ltibia
    ltibia lfoot
    lfoot ltoes
    rhipjoint rfemur
    rfemur rtibia
    rtibia rfoot
    rfoot rtoes
    lowerback upperback
    upperback thorax
    thorax lowerneck lclavicle rclavicle
    lowerneck upperneck
    upperneck head
    lclavicle lhumerus
    lhumerus lradius
    lradius lwrist
    lwrist lhand lthumb
    lhand lfingers
    rclavicle rhumerus
    rhumerus rradius
    rradius rwrist
    rwrist rhand rthumb
    rhand rfingers
  end

#!OML:ASF H:\Swim 2\Project 1\Capture day 1\Session 1\male.ASF
:FULLY-SPECIFIED
:DEGREES
1254
root 1.74397 14.5901 11.3689 94.4288 -82.8459 3.40841
lowerback -16.8991 11.222 4.43531
upperback -17.2428 13.9512 -17.0032
thorax -3.5605 6.09324 -18.6215
lowerneck -1.88324 -9.1713 23.3944
upperneck -21.3474 -13.1034 -4.65551
head -8.32124 -8.03024 -4.18608
rclavicle -1.43125e-013 3.02153e-014
rhumerus 2.67126 1.82853 -31.6112
rradius 61.8021
rwrist -35.4726
rhand -26.0115 -8.44648
rfingers 7.12502
rthumb 0.534676 -38.4256
lclavicle -1.43125e-013 3.02153e-014
lhumerus 81.0319 -18.5142 1.92494
lradius 72.4236
lwrist 60.0247
lhand -37.7383 -3.6907
lfingers 7.12502
lthumb -10.7869 26.0123
rfemur -60.5136 2.99636 24.407
rtibia 57.8748
rfoot 31.5206 1.09877
rtoes 37.7192
lfemur -64.3355 12.5163 -31.1053
ltibia 66.7988
lfoot 23.2273 0.933527
ltoes 0.768402
1255
root 1.72177 14.5653 11.3731 94.7532 -82.8256 3.09296
lowerback -17.1385 11.1142 4.23549
upperback -17.5211 13.7566 -17.0062
thorax -3.85829 5.94581 -18.575
lowerneck -0.846899 -9.27303 24.0287
upperneck -22.0321 -12.9713 -4.76735
head -8.78388 -8.01883 -4.2614
rclavicle -1.74931e-014 3.18055e-015
rhumerus 1.27527 4.33289 -34.4878
rradius 64.1824
rwrist -34.992
rhand -26.0323 -7.08022
rfingers 7.12502
rthumb 0.514575 -37.0593
lclavicle -1.74931e-014 3.18055e-015
lhumerus 81.5619 -19.6923 -0.76793
lradius 74.7218
lwrist 61.411
lhand -38.7443 -4.15916
lfingers 7.12502
lthumb -11.7571 25.4909
rfemur -60.1862 3.29464 24.3649
rtibia 55.824
rfoot 31.7465 0.913554
rtoes 37.7233
lfemur -64.2997 11.8533 -30.6829
ltibia 65.1768
lfoot 23.3285 1.00677
ltoes 0.195455
1256
root 1.6995 14.5386 11.3767 94.8927 -82.8003 2.97011
lowerback -17.5259 11.0403 3.8562
upperback -17.7892 13.6275 -16.9828
thorax -4.09904 5.85312 -18.3402
lowerneck 0.2505 -9.45406 24.7642
upperneck -22.7079 -12.938 -5.02238
head -9.29353 -8.04907 -4.38719
rclavicle -6.36111e-014 6.99722e-014
rhumerus -0.445842 6.88075 -37.2872
rradius 66.4268
rwrist -34.3113
rhand -26.082 -5.69734
rfingers 7.12502
rthumb 0.466593 -35.6766
lclavicle -6.36111e-014 6.99722e-014
lhumerus 82.7295 -20.8686 -3.5931
lradius 76.678
lwrist 63.1056
lhand -39.6616 -4.74953
lfingers 7.12502
lthumb -12.6415 24.8479
rfemur -59.8312 3.56518 24.339
rtibia 53.7281
rfoot 31.9101 0.76092
rtoes 37.6967
lfemur -64.2505 11.1747 -30.2284
ltibia 63.54
lfoot 23.4374 1.16063
ltoes -0.288264
1257
root 1.67738 14.5104 11.3794 94.906 -82.7894 2.97536
lowerback -18.0518 10.9887 3.30021
upperback -18.0448 13.5503 -16.9345
thorax -4.28944 5.8081 -17.9303
lowerneck 1.40664 -9.71145 25.585
upperneck -23.363 -12.995 -5.40089
head -9.84494 -8.11448 -4.55588
rclavicle 6.83819e-014 -7.79236e-014
rhumerus -2.4544 9.41892 -40.0624
rradius 68.4545
rwrist -33.4615
rhand -26.1933 -4.29481
rfingers 7.12502
rthumb 0.359027 -34.2743
lclavicle 6.83819e-014 -7.79236e-014
lhumerus 84.4477 -21.9126 -6.62097
lradius 78.4108
lwrist 65.2877
lhand -40.4539 -5.49049
lfingers 7.12502
lthumb -13.4054 24.0582
rfemur -59.4515 3.80776 24.3134
rtibia 51.613
rfoot 32.0172 0.618587
rtoes 37.6684
lfemur -64.1876 10.5097 -29.7778
ltibia 61.9209
lfoot 23.5167 1.4117
ltoes -0.674481
1258
root 1.6554 14.481 11.3815 94.7868 -82.776 3.10766
lowerback -18.6875 10.944 2.63784
upperback -18.2858 13.5007 -16.858
thorax -4.43578 5.79196 -17.3987
lowerneck 2.60136 -10.0303 26.454
upperneck -23.9755 -13.1201 -5.86396
head -10.4204 -8.20235 -4.75311
rclavicle 1.82882e-013 1.74931e-014
rhumerus -4.70175 11.9077 -42.8682
rradius 70.2159
rwrist -32.5617
rhand -26.343 -2.8121
rfingers 7.12502
rthumb 0.214494 -32.7917
lclavicle 1.82882e-013 1.74931e-014
lhumerus 86.6183 -22.6546 -9.89093
lradius 79.9973
lwrist 68.0208
lhand -41.1288 -6.21556
lfingers 7.12502
lthumb -14.0557 23.2891
rfemur -59.0422 4.01999 24.3122
rtibia 49.4988
rfoot 32.0836 0.488105
rtoes 37.5975
lfemur -64.1151 9.88605 -29.3393
ltibia 60.3524
lfoot 23.5473 1.7154
ltoes -1.08518
1259
root 1.63313 14.4514 11.3827 94.5115 -82.7655 3.3753
lowerback -19.3864 10.8878 1.90274
upperback -18.509 13.4528 -16.7478
thorax -4.56119 5.78657 -16.7797
lowerneck 3.79171 -10.3823 27.2963
upperneck -24.4999 -13.2844 -6.37567
head -10.9824 -8.29336 -4.96292
rclavicle 1.11319e-014 9.38264e-014
rhumerus -7.13035 14.2981 -45.7623
rradius 71.6504
rwrist -31.7362
rhand -26.5378 -1.22415
rfingers 7.12502
rthumb 0.0262813 -31.2039
lclavicle 1.11319e-014 9.38264e-014
lhumerus 89.4097 -22.9542 -13.3938
lradius 81.2236
lwrist 71.3551
lhand -41.7087 -6.86684
lfingers 7.12502
lthumb -14.6145 22.5982
rfemur -58.5929 4.20028 24.3305
rtibia 47.4105
rfoot 32.1266 0.367077
rtoes 37.4809
lfemur -64.0201 9.33058 -28.9392
ltibia 58.8621
lfoot 23.5105 2.04894
ltoes -1.59037
1260
root 1.60998 14.4217 11.383 94.114 -82.7461 3.73142
lowerback -20.0233 10.7826 1.26636
upperback -18.6907 13.3367 -16.621
thorax -4.67439 5.74092 -16.2305
lowerneck 4.76369 -10.6519 28.0106
upperneck -24.8611 -13.3842 -6.84025
head -11.4238 -8.34365 -5.16533
rclavicle -1.81292e-013 6.20208e-014
rhumerus -9.51784 16.5349 -48.8523
rradius 72.7022
rwrist -31.1254
rhand -26.7724 0.473831
rfingers 7.12502
rthumb -0.200246 -29.5058
lclavicle -1.81292e-013 6.20208e-014
lhumerus 92.8664 -23.6685 -17.0229
lradius 81.5992
lwrist 74.2203
lhand -42.1236 -7.54706
lfingers 7.12502
lthumb -15.0142 21.8886
rfemur -58.0928 4.35239 24.382
rtibia 45.3738
rfoot 32.1638 0.272512
rtoes 37.2629
lfemur -63.8933 8.87932 -28.5937
ltibia 57.4778
lfoot 23.4189 2.34883
ltoes -2.33392
